<?xml version="1.0" encoding="UTF-8" standalone="no"?>
<!DOCTYPE svg PUBLIC "-//W3C//DTD SVG 1.1//EN" "http://www.w3.org/Graphics/SVG/1.1/DTD/svg11.dtd">
<svg width="100%" height="100%" viewBox="0 0 1500 1500" version="1.1" xmlns="http://www.w3.org/2000/svg" xmlns:xlink="http://www.w3.org/1999/xlink" xml:space="preserve" xmlns:serif="http://www.serif.com/" style="fill-rule:evenodd;clip-rule:evenodd;stroke-linejoin:round;stroke-miterlimit:1.41421;">
    <g transform="matrix(2.93112,0,0,3.2981,560.621,-270.354)">
        <rect x="-191.265" y="81.973" width="511.749" height="454.808" style="fill:rgb(238,238,238);"/>
    </g>
    <path d="M650.51,972.972L556.239,972.972C476.809,967.576 413.96,901.35 413.96,820.561C413.96,753.24 457.6,696.032 518.109,675.707C532.748,626.325 578.496,590.258 632.602,590.258C644.405,590.258 655.811,591.975 666.583,595.172C702.153,553.481 755.067,527.028 814.112,527.028C907.119,527.028 984.917,592.665 1003.67,680.105C1054.96,706.712 1093.14,768.995 1090.04,822.034C1083.38,935.809 988.551,972.375 947.837,972.972L877.966,972.972L877.966,906.903L946.469,906.903L946.469,906.305C991.351,901.173 1026.24,863.626 1026.24,818.132C1026.24,772.604 991.298,735.034 946.368,729.948C946.435,728.228 946.469,726.499 946.469,724.762C946.469,651.711 886.146,592.403 811.845,592.403C755.634,592.403 707.423,626.347 687.28,674.506C675.623,663.594 659.852,656.892 642.501,656.892C606.647,656.892 577.538,685.511 577.538,720.762C577.538,723.824 577.758,726.836 578.183,729.784C575.271,729.505 572.319,729.362 569.333,729.362C519.501,729.362 479.044,769.138 479.044,818.132C479.044,863.778 514.161,901.423 559.259,906.355L559.259,906.903L650.605,906.903L650.51,972.972Z" style="fill:rgb(190,190,190);"/>
    <g transform="matrix(1.01115,0,0,1.01229,-9.2508,-11.9549)">
        <path d="M829.652,849.355L885.438,848.921L765.096,729.018L644.659,849.844L700.494,849.355L700.494,972.972L829.652,972.972L829.652,849.355Z" style="fill:rgb(190,190,190);"/>
    </g>
</svg>
