<?xml version="1.0" encoding="UTF-8" standalone="no"?>
<!DOCTYPE svg PUBLIC "-//W3C//DTD SVG 1.1//EN" "http://www.w3.org/Graphics/SVG/1.1/DTD/svg11.dtd">
<svg width="100%" height="100%" viewBox="0 0 1500 1500" version="1.1" xmlns="http://www.w3.org/2000/svg" xmlns:xlink="http://www.w3.org/1999/xlink" xml:space="preserve" xmlns:serif="http://www.serif.com/" style="fill-rule:evenodd;clip-rule:evenodd;stroke-linejoin:round;stroke-miterlimit:1.41421;">
    <g transform="matrix(2.93112,0,0,3.2981,560.621,-270.354)">
        <rect x="-191.265" y="81.973" width="511.749" height="454.808" style="fill:rgb(238,238,238);"/>
    </g>
    <g transform="matrix(1.25199,0,0,1.25199,-189.498,-188.994)">
        <path d="M982.669,963.219L521.331,963.219C499.623,963.219 481.999,945.595 481.999,923.887L481.999,576.113C481.999,554.405 499.623,536.781 521.331,536.781L982.669,536.781C1004.38,536.781 1022,554.405 1022,576.113L1022,923.887C1022,945.595 1004.38,963.219 982.669,963.219ZM965.226,565.717L538.774,565.717C527.661,565.718 518.641,574.739 518.641,585.85L518.641,914.15C518.641,925.262 527.662,934.283 538.774,934.283L965.226,934.283C976.338,934.283 985.359,925.262 985.359,914.15L985.359,585.85C985.359,574.739 976.339,565.718 965.226,565.717ZM950.144,892.077L555.576,892.077L555.576,839.078L647.158,750L692.347,794.448L834.589,650.748L950.144,767.301L950.144,892.077ZM610.117,604.891C640.22,604.891 664.659,629.33 664.659,659.433C664.659,689.535 640.22,713.974 610.117,713.974C580.015,713.974 555.576,689.535 555.576,659.433C555.576,629.33 580.015,604.891 610.117,604.891Z" style="fill:rgb(190,190,190);"/>
    </g>
</svg>
